<svg id="Capa_1" enable-background="new 0 0 497 497" height="512" viewBox="0 0 497 497" width="512" xmlns="http://www.w3.org/2000/svg"><g><g><path d="m192.562 87.608c-42.29-36.596-107.581.833-96.907 55.913-55.191-10.639-92.5 54.61-55.901 96.886-52.942 18.351-53.071 93.473 0 111.867-36.609 42.29 1.117 96.886 55.9 96.886h208.783v-361.551c-18.336-52.947-93.483-53.102-111.875-.001z" fill="#0caf7b"/><path d="m457.245 352.273c52.942-18.351 53.071-93.473 0-111.867 36.636-42.322-.754-107.516-55.9-96.886 10.618-54.786-54.331-92.752-96.906-55.911-15.004 12.729-23.936 32.761-19.45 55.911-55.191-10.639-92.5 54.61-55.901 96.886-52.942 18.351-53.071 93.473 0 111.867-36.609 42.29 1.117 96.886 55.9 96.886h116.355c58.344 0 92.505-54.605 55.902-96.886z" fill="#30cd9c"/></g><g fill="#70dcba"><path d="m452.993 291.937c-9.262-13.747-24.971-22.793-42.801-22.793s-33.539 9.046-42.801 22.793c-2.932 4.352-2.932 10.062 0 14.414 9.262 13.747 24.971 22.793 42.801 22.793s33.539-9.046 42.801-22.793c2.932-4.351 2.932-10.062 0-14.414z"/><path d="m356.688 139.633c-4.352-2.932-10.062-2.932-14.414 0-13.747 9.262-22.793 24.971-22.793 42.801s9.046 33.539 22.793 42.801c4.352 2.932 10.062 2.932 14.414 0 13.747-9.262 22.793-24.971 22.793-42.801 0-17.831-9.046-33.539-22.793-42.801z"/><path d="m339.295 353.139c-16.27-3.171-33.774 1.54-46.382 14.148s-17.319 30.112-14.148 46.382c1.004 5.15 5.042 9.188 10.192 10.192 16.27 3.171 33.774-1.54 46.382-14.147 12.608-12.608 17.319-30.112 14.148-46.382-1.004-5.151-5.042-9.189-10.192-10.193z"/><path d="m224.126 318.5c-17.83 0-33.539 9.046-42.801 22.793-2.932 4.352-2.932 10.062 0 14.414 9.262 13.747 24.971 22.793 42.801 22.793s33.539-9.046 42.801-22.793c2.932-4.352 2.932-10.062 0-14.414-9.262-13.747-24.971-22.793-42.801-22.793z"/><path d="m239.295 183.861c5.15-1.004 9.188-5.042 10.192-10.192 3.171-16.27-1.54-33.774-14.148-46.382s-30.112-17.319-46.382-14.147c-5.15 1.003-9.188 5.042-10.192 10.192-3.171 16.27 1.54 33.774 14.148 46.382 12.608 12.607 30.112 17.318 46.382 14.147z"/><path d="m133.295 309.139c-16.27-3.171-33.774 1.54-46.382 14.147-12.608 12.608-17.319 30.113-14.148 46.382 1.004 5.15 5.042 9.188 10.192 10.192 16.27 3.171 33.774-1.54 46.382-14.147 12.608-12.608 17.319-30.113 14.148-46.382-1.004-5.151-5.042-9.188-10.192-10.192z"/><path d="m92.957 179.139c-5.15 1.003-9.188 5.042-10.192 10.192-3.171 16.27 1.54 33.774 14.148 46.382s30.112 17.319 46.382 14.148c5.15-1.004 9.188-5.042 10.192-10.192 3.171-16.27-1.54-33.774-14.148-46.382s-30.112-17.319-46.382-14.148z"/></g><g><g fill="#ffdbe0"><path d="m168.943 261.944c-16.212 0-29.355 10.466-29.355 23.377s13.142 23.376 29.355 23.376c16.212 0 29.355-10.466 29.355-23.376s-13.142-23.377-29.355-23.377z"/><path d="m328.057 261.944c-16.212 0-29.355 10.466-29.355 23.377s13.143 23.376 29.355 23.376 29.355-10.466 29.355-23.376-13.143-23.377-29.355-23.377z"/></g><g fill="#313d40"><path d="m186.051 243.317c-4.142 0-7.5 3.357-7.5 7.5v12c0 4.143 3.358 7.5 7.5 7.5s7.5-3.357 7.5-7.5v-12c0-4.142-3.358-7.5-7.5-7.5z"/><path d="m310.949 243.317c-4.142 0-7.5 3.357-7.5 7.5v12c0 4.143 3.358 7.5 7.5 7.5s7.5-3.357 7.5-7.5v-12c0-4.142-3.358-7.5-7.5-7.5z"/><path d="m269.892 256.806c-3.123-2.721-7.861-2.396-10.582.727-2.729 3.133-6.669 4.929-10.81 4.929s-8.081-1.796-10.81-4.929c-2.721-3.122-7.459-3.447-10.582-.727-3.123 2.722-3.448 7.459-.727 10.582 5.579 6.401 13.641 10.073 22.119 10.073s16.54-3.672 22.119-10.073c2.721-3.123 2.396-7.861-.727-10.582z"/></g></g></g></svg>