<?xml version="1.0" ?><!DOCTYPE svg  PUBLIC '-//W3C//DTD SVG 1.1//EN'  'http://www.w3.org/Graphics/SVG/1.1/DTD/svg11.dtd'><svg height="512px" style="enable-background:new 0 0 512 512;" version="1.1" viewBox="0 0 512 512" width="512px" xml:space="preserve" xmlns="http://www.w3.org/2000/svg" xmlns:xlink="http://www.w3.org/1999/xlink"><g id="_x37_5-forrst"><g><g><path d="M62.134,495.25L256,16.75l193.865,478.5H62.134z M62.134,495.25" style="fill:#00BBA9;"/><path d="M356.691,354.241c-3.725-7.414-12.734-10.438-20.016-6.643l-50.85,25.661v-14.981     c2.838,0,5.697-0.808,8.264-2.509l28.631-19.144c6.83-4.576,8.709-13.88,4.145-20.724c-4.59-6.881-13.926-8.705-20.668-4.158     l-20.371,13.606v-39.449h-59.652v75.095l-27.588-27.899c-5.783-5.864-15.238-5.923-21.083-0.118     c-5.851,5.797-5.875,15.309-0.095,21.141l38.476,38.905c2.836,2.873,6.561,4.31,10.289,4.401v97.824h59.652v-90.319     c2.236,0,4.537-0.512,6.68-1.613l57.568-29.041C357.438,370.602,360.385,361.628,356.691,354.241L356.691,354.241z      M356.691,354.241" style="fill:#FCFCFC;"/></g></g></g><g id="Layer_1"/></svg>